<?xml version="1.0" encoding="utf-8" standalone="no"?>
<!DOCTYPE svg PUBLIC "-//W3C//DTD SVG 1.1//EN"
  "http://www.w3.org/Graphics/SVG/1.1/DTD/svg11.dtd">
<!-- Created with matplotlib (https://matplotlib.org/) -->
<svg height="288pt" version="1.1" viewBox="0 0 432 288" width="432pt" xmlns="http://www.w3.org/2000/svg" xmlns:xlink="http://www.w3.org/1999/xlink">
 <metadata>
  <rdf:RDF xmlns:cc="http://creativecommons.org/ns#" xmlns:dc="http://purl.org/dc/elements/1.1/" xmlns:rdf="http://www.w3.org/1999/02/22-rdf-syntax-ns#">
   <cc:Work>
    <dc:type rdf:resource="http://purl.org/dc/dcmitype/StillImage"/>
    <dc:date>2024-05-09T20:23:43.374153</dc:date>
    <dc:format>image/svg+xml</dc:format>
    <dc:creator>
     <cc:Agent>
      <dc:title>Matplotlib v3.3.4, https://matplotlib.org/</dc:title>
     </cc:Agent>
    </dc:creator>
   </cc:Work>
  </rdf:RDF>
 </metadata>
 <defs>
  <style type="text/css">*{stroke-linecap:butt;stroke-linejoin:round;}</style>
 </defs>
 <g id="figure_1">
  <g id="patch_1">
   <path d="M 0 288 
L 432 288 
L 432 0 
L 0 0 
z
" style="fill:#ffffff;"/>
  </g>
  <g id="axes_1">
   <g id="LineCollection_1">
    <path clip-path="url(#p4001dd8ded)" d="M 215.587891 143.572341 
L 326.169317 83.848322 
" style="fill:none;stroke:#000000;"/>
    <path clip-path="url(#p4001dd8ded)" d="M 215.587891 143.572341 
L 303.349413 142.384552 
" style="fill:none;stroke:#000000;"/>
    <path clip-path="url(#p4001dd8ded)" d="M 215.587891 143.572341 
L 214.443292 201.815211 
" style="fill:none;stroke:#000000;"/>
    <path clip-path="url(#p4001dd8ded)" d="M 215.587891 143.572341 
L 126.399079 217.387801 
" style="fill:none;stroke:#000000;"/>
    <path clip-path="url(#p4001dd8ded)" d="M 215.587891 143.572341 
L 105.51586 177.375844 
" style="fill:none;stroke:#000000;"/>
    <path clip-path="url(#p4001dd8ded)" d="M 215.587891 143.572341 
L 167.519126 111.909159 
" style="fill:none;stroke:#000000;"/>
    <path clip-path="url(#p4001dd8ded)" d="M 215.587891 143.572341 
L 265.719153 70.285496 
" style="fill:none;stroke:#000000;"/>
    <path clip-path="url(#p4001dd8ded)" d="M 326.169317 83.848322 
L 303.349413 142.384552 
" style="fill:none;stroke:#000000;"/>
    <path clip-path="url(#p4001dd8ded)" d="M 326.169317 83.848322 
L 265.719153 70.285496 
" style="fill:none;stroke:#000000;"/>
    <path clip-path="url(#p4001dd8ded)" d="M 326.169317 83.848322 
L 394.512397 46.936849 
" style="fill:none;stroke:#000000;"/>
    <path clip-path="url(#p4001dd8ded)" d="M 303.349413 142.384552 
L 214.443292 201.815211 
" style="fill:none;stroke:#000000;"/>
    <path clip-path="url(#p4001dd8ded)" d="M 303.349413 142.384552 
L 357.589016 141.650458 
" style="fill:none;stroke:#000000;"/>
    <path clip-path="url(#p4001dd8ded)" d="M 214.443292 201.815211 
L 126.399079 217.387801 
" style="fill:none;stroke:#000000;"/>
    <path clip-path="url(#p4001dd8ded)" d="M 214.443292 201.815211 
L 213.735892 237.811285 
" style="fill:none;stroke:#000000;"/>
    <path clip-path="url(#p4001dd8ded)" d="M 126.399079 217.387801 
L 105.51586 177.375844 
" style="fill:none;stroke:#000000;"/>
    <path clip-path="url(#p4001dd8ded)" d="M 126.399079 217.387801 
L 71.277361 263.008264 
" style="fill:none;stroke:#000000;"/>
    <path clip-path="url(#p4001dd8ded)" d="M 105.51586 177.375844 
L 167.519126 111.909159 
" style="fill:none;stroke:#000000;"/>
    <path clip-path="url(#p4001dd8ded)" d="M 105.51586 177.375844 
L 37.487603 198.267558 
" style="fill:none;stroke:#000000;"/>
    <path clip-path="url(#p4001dd8ded)" d="M 167.519126 111.909159 
L 265.719153 70.285496 
" style="fill:none;stroke:#000000;"/>
    <path clip-path="url(#p4001dd8ded)" d="M 167.519126 111.909159 
L 137.810995 92.340237 
" style="fill:none;stroke:#000000;"/>
    <path clip-path="url(#p4001dd8ded)" d="M 265.719153 70.285496 
L 296.701976 24.991736 
" style="fill:none;stroke:#000000;"/>
    <path clip-path="url(#p4001dd8ded)" d="M 394.512397 46.936849 
L 357.589016 141.650458 
" style="fill:none;stroke:#000000;"/>
    <path clip-path="url(#p4001dd8ded)" d="M 394.512397 46.936849 
L 296.701976 24.991736 
" style="fill:none;stroke:#000000;"/>
    <path clip-path="url(#p4001dd8ded)" d="M 357.589016 141.650458 
L 213.735892 237.811285 
" style="fill:none;stroke:#000000;"/>
    <path clip-path="url(#p4001dd8ded)" d="M 213.735892 237.811285 
L 71.277361 263.008264 
" style="fill:none;stroke:#000000;"/>
    <path clip-path="url(#p4001dd8ded)" d="M 71.277361 263.008264 
L 37.487603 198.267558 
" style="fill:none;stroke:#000000;"/>
    <path clip-path="url(#p4001dd8ded)" d="M 37.487603 198.267558 
L 137.810995 92.340237 
" style="fill:none;stroke:#000000;"/>
    <path clip-path="url(#p4001dd8ded)" d="M 137.810995 92.340237 
L 296.701976 24.991736 
" style="fill:none;stroke:#000000;"/>
   </g>
   <g id="LineCollection_2">
    <path clip-path="url(#p4001dd8ded)" d="M 215.587891 143.572341 
L 326.169317 83.848322 
" style="fill:none;stroke:#000000;"/>
    <path clip-path="url(#p4001dd8ded)" d="M 215.587891 143.572341 
L 303.349413 142.384552 
" style="fill:none;stroke:#000000;"/>
    <path clip-path="url(#p4001dd8ded)" d="M 215.587891 143.572341 
L 214.443292 201.815211 
" style="fill:none;stroke:#000000;"/>
    <path clip-path="url(#p4001dd8ded)" d="M 215.587891 143.572341 
L 126.399079 217.387801 
" style="fill:none;stroke:#000000;"/>
    <path clip-path="url(#p4001dd8ded)" d="M 215.587891 143.572341 
L 105.51586 177.375844 
" style="fill:none;stroke:#000000;"/>
    <path clip-path="url(#p4001dd8ded)" d="M 215.587891 143.572341 
L 167.519126 111.909159 
" style="fill:none;stroke:#000000;"/>
    <path clip-path="url(#p4001dd8ded)" d="M 215.587891 143.572341 
L 265.719153 70.285496 
" style="fill:none;stroke:#000000;"/>
    <path clip-path="url(#p4001dd8ded)" d="M 326.169317 83.848322 
L 303.349413 142.384552 
" style="fill:none;stroke:#000000;"/>
    <path clip-path="url(#p4001dd8ded)" d="M 326.169317 83.848322 
L 265.719153 70.285496 
" style="fill:none;stroke:#000000;"/>
    <path clip-path="url(#p4001dd8ded)" d="M 326.169317 83.848322 
L 394.512397 46.936849 
" style="fill:none;stroke:#000000;"/>
    <path clip-path="url(#p4001dd8ded)" d="M 303.349413 142.384552 
L 214.443292 201.815211 
" style="fill:none;stroke:#000000;"/>
    <path clip-path="url(#p4001dd8ded)" d="M 303.349413 142.384552 
L 357.589016 141.650458 
" style="fill:none;stroke:#000000;"/>
    <path clip-path="url(#p4001dd8ded)" d="M 214.443292 201.815211 
L 126.399079 217.387801 
" style="fill:none;stroke:#000000;"/>
    <path clip-path="url(#p4001dd8ded)" d="M 214.443292 201.815211 
L 213.735892 237.811285 
" style="fill:none;stroke:#000000;"/>
    <path clip-path="url(#p4001dd8ded)" d="M 126.399079 217.387801 
L 105.51586 177.375844 
" style="fill:none;stroke:#000000;"/>
    <path clip-path="url(#p4001dd8ded)" d="M 126.399079 217.387801 
L 71.277361 263.008264 
" style="fill:none;stroke:#000000;"/>
    <path clip-path="url(#p4001dd8ded)" d="M 105.51586 177.375844 
L 167.519126 111.909159 
" style="fill:none;stroke:#000000;"/>
    <path clip-path="url(#p4001dd8ded)" d="M 105.51586 177.375844 
L 37.487603 198.267558 
" style="fill:none;stroke:#000000;"/>
    <path clip-path="url(#p4001dd8ded)" d="M 167.519126 111.909159 
L 265.719153 70.285496 
" style="fill:none;stroke:#000000;"/>
    <path clip-path="url(#p4001dd8ded)" d="M 167.519126 111.909159 
L 137.810995 92.340237 
" style="fill:none;stroke:#000000;"/>
    <path clip-path="url(#p4001dd8ded)" d="M 265.719153 70.285496 
L 296.701976 24.991736 
" style="fill:none;stroke:#000000;"/>
    <path clip-path="url(#p4001dd8ded)" d="M 394.512397 46.936849 
L 357.589016 141.650458 
" style="fill:none;stroke:#000000;"/>
    <path clip-path="url(#p4001dd8ded)" d="M 394.512397 46.936849 
L 296.701976 24.991736 
" style="fill:none;stroke:#000000;"/>
    <path clip-path="url(#p4001dd8ded)" d="M 357.589016 141.650458 
L 213.735892 237.811285 
" style="fill:none;stroke:#000000;"/>
    <path clip-path="url(#p4001dd8ded)" d="M 213.735892 237.811285 
L 71.277361 263.008264 
" style="fill:none;stroke:#000000;"/>
    <path clip-path="url(#p4001dd8ded)" d="M 71.277361 263.008264 
L 37.487603 198.267558 
" style="fill:none;stroke:#000000;"/>
    <path clip-path="url(#p4001dd8ded)" d="M 37.487603 198.267558 
L 137.810995 92.340237 
" style="fill:none;stroke:#000000;"/>
    <path clip-path="url(#p4001dd8ded)" d="M 137.810995 92.340237 
L 296.701976 24.991736 
" style="fill:none;stroke:#000000;"/>
   </g>
   <g id="PathCollection_1">
    <defs>
     <path d="M 0 6.123724 
C 1.624031 6.123724 3.181764 5.47849 4.330127 4.330127 
C 5.47849 3.181764 6.123724 1.624031 6.123724 0 
C 6.123724 -1.624031 5.47849 -3.181764 4.330127 -4.330127 
C 3.181764 -5.47849 1.624031 -6.123724 0 -6.123724 
C -1.624031 -6.123724 -3.181764 -5.47849 -4.330127 -4.330127 
C -5.47849 -3.181764 -6.123724 -1.624031 -6.123724 0 
C -6.123724 1.624031 -5.47849 3.181764 -4.330127 4.330127 
C -3.181764 5.47849 -1.624031 6.123724 0 6.123724 
z
" id="m44508b87ca" style="stroke:#8b0000;"/>
    </defs>
    <g clip-path="url(#p4001dd8ded)">
     <use style="fill:#8b0000;stroke:#8b0000;" x="215.587891" xlink:href="#m44508b87ca" y="143.572341"/>
     <use style="fill:#8b0000;stroke:#8b0000;" x="326.169317" xlink:href="#m44508b87ca" y="83.848322"/>
     <use style="fill:#8b0000;stroke:#8b0000;" x="303.349413" xlink:href="#m44508b87ca" y="142.384552"/>
     <use style="fill:#8b0000;stroke:#8b0000;" x="214.443292" xlink:href="#m44508b87ca" y="201.815211"/>
     <use style="fill:#8b0000;stroke:#8b0000;" x="126.399079" xlink:href="#m44508b87ca" y="217.387801"/>
     <use style="fill:#8b0000;stroke:#8b0000;" x="105.51586" xlink:href="#m44508b87ca" y="177.375844"/>
     <use style="fill:#8b0000;stroke:#8b0000;" x="167.519126" xlink:href="#m44508b87ca" y="111.909159"/>
     <use style="fill:#8b0000;stroke:#8b0000;" x="265.719153" xlink:href="#m44508b87ca" y="70.285496"/>
     <use style="fill:#8b0000;stroke:#8b0000;" x="394.512397" xlink:href="#m44508b87ca" y="46.936849"/>
     <use style="fill:#8b0000;stroke:#8b0000;" x="357.589016" xlink:href="#m44508b87ca" y="141.650458"/>
     <use style="fill:#8b0000;stroke:#8b0000;" x="213.735892" xlink:href="#m44508b87ca" y="237.811285"/>
     <use style="fill:#8b0000;stroke:#8b0000;" x="71.277361" xlink:href="#m44508b87ca" y="263.008264"/>
     <use style="fill:#8b0000;stroke:#8b0000;" x="37.487603" xlink:href="#m44508b87ca" y="198.267558"/>
     <use style="fill:#8b0000;stroke:#8b0000;" x="137.810995" xlink:href="#m44508b87ca" y="92.340237"/>
     <use style="fill:#8b0000;stroke:#8b0000;" x="296.701976" xlink:href="#m44508b87ca" y="24.991736"/>
    </g>
   </g>
   <g id="PathCollection_2">
    <g clip-path="url(#p4001dd8ded)">
     <use style="fill:#8b0000;stroke:#8b0000;" x="215.587891" xlink:href="#m44508b87ca" y="143.572341"/>
     <use style="fill:#8b0000;stroke:#8b0000;" x="326.169317" xlink:href="#m44508b87ca" y="83.848322"/>
     <use style="fill:#8b0000;stroke:#8b0000;" x="303.349413" xlink:href="#m44508b87ca" y="142.384552"/>
     <use style="fill:#8b0000;stroke:#8b0000;" x="214.443292" xlink:href="#m44508b87ca" y="201.815211"/>
     <use style="fill:#8b0000;stroke:#8b0000;" x="126.399079" xlink:href="#m44508b87ca" y="217.387801"/>
     <use style="fill:#8b0000;stroke:#8b0000;" x="105.51586" xlink:href="#m44508b87ca" y="177.375844"/>
     <use style="fill:#8b0000;stroke:#8b0000;" x="167.519126" xlink:href="#m44508b87ca" y="111.909159"/>
     <use style="fill:#8b0000;stroke:#8b0000;" x="265.719153" xlink:href="#m44508b87ca" y="70.285496"/>
     <use style="fill:#8b0000;stroke:#8b0000;" x="394.512397" xlink:href="#m44508b87ca" y="46.936849"/>
     <use style="fill:#8b0000;stroke:#8b0000;" x="357.589016" xlink:href="#m44508b87ca" y="141.650458"/>
     <use style="fill:#8b0000;stroke:#8b0000;" x="213.735892" xlink:href="#m44508b87ca" y="237.811285"/>
     <use style="fill:#8b0000;stroke:#8b0000;" x="71.277361" xlink:href="#m44508b87ca" y="263.008264"/>
     <use style="fill:#8b0000;stroke:#8b0000;" x="37.487603" xlink:href="#m44508b87ca" y="198.267558"/>
     <use style="fill:#8b0000;stroke:#8b0000;" x="137.810995" xlink:href="#m44508b87ca" y="92.340237"/>
     <use style="fill:#8b0000;stroke:#8b0000;" x="296.701976" xlink:href="#m44508b87ca" y="24.991736"/>
    </g>
   </g>
  </g>
 </g>
 <defs>
  <clipPath id="p4001dd8ded">
   <rect height="288" width="432" x="0" y="0"/>
  </clipPath>
 </defs>
</svg>
