<?xml version="1.0" encoding="UTF-8" standalone="no"?>
<!-- Created with Inkscape (http://www.inkscape.org/) -->

<svg
   version="1.1"
   id="svg2"
   width="576"
   height="384"
   viewBox="0 0 576 384"
   xmlns="http://www.w3.org/2000/svg"
   xmlns:svg="http://www.w3.org/2000/svg">
  <defs
     id="defs6">
    <clipPath
       clipPathUnits="userSpaceOnUse"
       id="clipPath18">
      <path
         d="M 0,0 H 432 V 288 H 0 Z"
         id="path16" />
    </clipPath>
    <clipPath
       clipPathUnits="userSpaceOnUse"
       id="clipPath38">
      <path
         d="M 0,0 H 432 V 288 H 0 Z"
         id="path36" />
    </clipPath>
    <clipPath
       clipPathUnits="userSpaceOnUse"
       id="clipPath48">
      <path
         d="M -13.660254,-13.660254 H 13.660254 V 13.660254 H -13.660254 Z"
         id="path46" />
    </clipPath>
    <clipPath
       clipPathUnits="userSpaceOnUse"
       id="clipPath60">
      <path
         d="M -13.660254,-13.660254 H 13.660254 V 13.660254 H -13.660254 Z"
         id="path58" />
    </clipPath>
    <clipPath
       clipPathUnits="userSpaceOnUse"
       id="clipPath72">
      <path
         d="M -13.660254,-13.660254 H 13.660254 V 13.660254 H -13.660254 Z"
         id="path70" />
    </clipPath>
    <clipPath
       clipPathUnits="userSpaceOnUse"
       id="clipPath84">
      <path
         d="M -13.660254,-13.660254 H 13.660254 V 13.660254 H -13.660254 Z"
         id="path82" />
    </clipPath>
    <clipPath
       clipPathUnits="userSpaceOnUse"
       id="clipPath96">
      <path
         d="M -13.660254,-13.660254 H 13.660254 V 13.660254 H -13.660254 Z"
         id="path94" />
    </clipPath>
    <clipPath
       clipPathUnits="userSpaceOnUse"
       id="clipPath108">
      <path
         d="M -13.660254,-13.660254 H 13.660254 V 13.660254 H -13.660254 Z"
         id="path106" />
    </clipPath>
    <clipPath
       clipPathUnits="userSpaceOnUse"
       id="clipPath118">
      <path
         d="M 0,0 H 432 V 288 H 0 Z"
         id="path116" />
    </clipPath>
    <clipPath
       clipPathUnits="userSpaceOnUse"
       id="clipPath130">
      <path
         d="M 0,0 H 432 V 288 H 0 Z"
         id="path128" />
    </clipPath>
    <clipPath
       clipPathUnits="userSpaceOnUse"
       id="clipPath142">
      <path
         d="M 0,0 H 432 V 288 H 0 Z"
         id="path140" />
    </clipPath>
    <clipPath
       clipPathUnits="userSpaceOnUse"
       id="clipPath154">
      <path
         d="M 0,0 H 432 V 288 H 0 Z"
         id="path152" />
    </clipPath>
    <clipPath
       clipPathUnits="userSpaceOnUse"
       id="clipPath166">
      <path
         d="M 0,0 H 432 V 288 H 0 Z"
         id="path164" />
    </clipPath>
    <clipPath
       clipPathUnits="userSpaceOnUse"
       id="clipPath178">
      <path
         d="M 0,0 H 432 V 288 H 0 Z"
         id="path176" />
    </clipPath>
  </defs>
  <g
     id="g8"
     transform="matrix(1.3333333,0,0,-1.3333333,0,384)">
    <path
       d="M 0,0 H 432 V 288 H 0 Z"
       style="fill:#ffffff;fill-opacity:1;fill-rule:nonzero;stroke:none"
       id="path10" />
    <g
       id="g12">
      <g
         id="g14"
         clip-path="url(#clipPath18)">
        <path
           d="M 394.5124,144 305.25619,263.00826"
           style="fill:none;stroke:#000000;stroke-width:1;stroke-linecap:butt;stroke-linejoin:round;stroke-miterlimit:10;stroke-dasharray:none;stroke-opacity:1"
           id="path20" />
        <path
           d="M 394.5124,144 305.25618,24.991736"
           style="fill:none;stroke:#000000;stroke-width:1;stroke-linecap:butt;stroke-linejoin:round;stroke-miterlimit:10;stroke-dasharray:none;stroke-opacity:1"
           id="path22" />
        <path
           d="M 305.25619,263.00826 H 126.74379"
           style="fill:none;stroke:#000000;stroke-width:1;stroke-linecap:butt;stroke-linejoin:round;stroke-miterlimit:10;stroke-dasharray:none;stroke-opacity:1"
           id="path24" />
        <path
           d="M 126.74379,263.00826 37.487603,143.99999"
           style="fill:none;stroke:#000000;stroke-width:1;stroke-linecap:butt;stroke-linejoin:round;stroke-miterlimit:10;stroke-dasharray:none;stroke-opacity:1"
           id="path26" />
        <path
           d="M 37.487603,143.99999 126.74382,24.991736"
           style="fill:none;stroke:#000000;stroke-width:1;stroke-linecap:butt;stroke-linejoin:round;stroke-miterlimit:10;stroke-dasharray:none;stroke-opacity:1"
           id="path28" />
        <path
           d="M 126.74382,24.991736 H 305.25618"
           style="fill:none;stroke:#000000;stroke-width:1;stroke-linecap:butt;stroke-linejoin:round;stroke-miterlimit:10;stroke-dasharray:none;stroke-opacity:1"
           id="path30" />
      </g>
    </g>
    <g
       id="g32">
      <g
         id="g34"
         clip-path="url(#clipPath38)">
        <g
           id="g40"
           transform="translate(394.5124,144)">
          <g
             id="g42">
            <g
               id="g44"
               clip-path="url(#clipPath48)">
              <path
                 d="m 0,-8.660254 c 2.296726,0 4.499694,0.912499 6.123724,2.53653 1.624031,1.62403 2.53653,3.826998 2.53653,6.123724 0,2.296726 -0.912499,4.499694 -2.53653,6.123724 C 4.499694,7.747755 2.296726,8.660254 0,8.660254 c -2.296726,0 -4.499694,-0.912499 -6.123724,-2.53653 C -7.747755,4.499694 -8.660254,2.296726 -8.660254,0 c 0,-2.296726 0.912499,-4.499694 2.53653,-6.123724 1.62403,-1.624031 3.826998,-2.53653 6.123724,-2.53653 z"
                 style="fill:#20b2aa;fill-opacity:1;fill-rule:nonzero;stroke:#20b2aa;stroke-width:1;stroke-linecap:butt;stroke-linejoin:round;stroke-miterlimit:10;stroke-dasharray:none;stroke-opacity:1"
                 id="path50" />
            </g>
          </g>
          <g
             id="g52"
             transform="translate(-89.256204,119.00826)">
            <g
               id="g54">
              <g
                 id="g56"
                 clip-path="url(#clipPath60)">
                <path
                   d="m 0,-8.660254 c 2.296726,0 4.499694,0.912499 6.123724,2.53653 1.624031,1.62403 2.53653,3.826998 2.53653,6.123724 0,2.296726 -0.912499,4.499694 -2.53653,6.123724 C 4.499694,7.747755 2.296726,8.660254 0,8.660254 c -2.296726,0 -4.499694,-0.912499 -6.123724,-2.53653 C -7.747755,4.499694 -8.660254,2.296726 -8.660254,0 c 0,-2.296726 0.912499,-4.499694 2.53653,-6.123724 1.62403,-1.624031 3.826998,-2.53653 6.123724,-2.53653 z"
                   style="fill:#20b2aa;fill-opacity:1;fill-rule:nonzero;stroke:#20b2aa;stroke-width:1;stroke-linecap:butt;stroke-linejoin:round;stroke-miterlimit:10;stroke-dasharray:none;stroke-opacity:1"
                   id="path62" />
              </g>
            </g>
            <g
               id="g64"
               transform="translate(-178.5124)">
              <g
                 id="g66">
                <g
                   id="g68"
                   clip-path="url(#clipPath72)">
                  <path
                     d="m 0,-8.660254 c 2.296726,0 4.499694,0.912499 6.123724,2.53653 1.624031,1.62403 2.53653,3.826998 2.53653,6.123724 0,2.296726 -0.912499,4.499694 -2.53653,6.123724 C 4.499694,7.747755 2.296726,8.660254 0,8.660254 c -2.296726,0 -4.499694,-0.912499 -6.123724,-2.53653 C -7.747755,4.499694 -8.660254,2.296726 -8.660254,0 c 0,-2.296726 0.912499,-4.499694 2.53653,-6.123724 1.62403,-1.624031 3.826998,-2.53653 6.123724,-2.53653 z"
                     style="fill:#20b2aa;fill-opacity:1;fill-rule:nonzero;stroke:#20b2aa;stroke-width:1;stroke-linecap:butt;stroke-linejoin:round;stroke-miterlimit:10;stroke-dasharray:none;stroke-opacity:1"
                     id="path74" />
                </g>
              </g>
              <g
                 id="g76"
                 transform="translate(-89.256188,-119.00827)">
                <g
                   id="g78">
                  <g
                     id="g80"
                     clip-path="url(#clipPath84)">
                    <path
                       d="m 0,-8.660254 c 2.296726,0 4.499694,0.912499 6.123724,2.53653 1.624031,1.62403 2.53653,3.826998 2.53653,6.123724 0,2.296726 -0.912499,4.499694 -2.53653,6.123724 C 4.499694,7.747755 2.296726,8.660254 0,8.660254 c -2.296726,0 -4.499694,-0.912499 -6.123724,-2.53653 C -7.747755,4.499694 -8.660254,2.296726 -8.660254,0 c 0,-2.296726 0.912499,-4.499694 2.53653,-6.123724 1.62403,-1.624031 3.826998,-2.53653 6.123724,-2.53653 z"
                       style="fill:#20b2aa;fill-opacity:1;fill-rule:nonzero;stroke:#20b2aa;stroke-width:1;stroke-linecap:butt;stroke-linejoin:round;stroke-miterlimit:10;stroke-dasharray:none;stroke-opacity:1"
                       id="path86" />
                  </g>
                </g>
                <g
                   id="g88"
                   transform="translate(89.256214,-119.00825)">
                  <g
                     id="g90">
                    <g
                       id="g92"
                       clip-path="url(#clipPath96)">
                      <path
                         d="m 0,-8.660254 c 2.296726,0 4.499694,0.912499 6.123724,2.53653 1.624031,1.62403 2.53653,3.826998 2.53653,6.123724 0,2.296726 -0.912499,4.499694 -2.53653,6.123724 C 4.499694,7.747755 2.296726,8.660254 0,8.660254 c -2.296726,0 -4.499694,-0.912499 -6.123724,-2.53653 C -7.747755,4.499694 -8.660254,2.296726 -8.660254,0 c 0,-2.296726 0.912499,-4.499694 2.53653,-6.123724 1.62403,-1.624031 3.826998,-2.53653 6.123724,-2.53653 z"
                         style="fill:#20b2aa;fill-opacity:1;fill-rule:nonzero;stroke:#20b2aa;stroke-width:1;stroke-linecap:butt;stroke-linejoin:round;stroke-miterlimit:10;stroke-dasharray:none;stroke-opacity:1"
                         id="path98" />
                    </g>
                  </g>
                  <g
                     id="g100"
                     transform="translate(178.51236)">
                    <g
                       id="g102">
                      <g
                         id="g104"
                         clip-path="url(#clipPath108)">
                        <path
                           d="m 0,-8.660254 c 2.296726,0 4.499694,0.912499 6.123724,2.53653 1.624031,1.62403 2.53653,3.826998 2.53653,6.123724 0,2.296726 -0.912499,4.499694 -2.53653,6.123724 C 4.499694,7.747755 2.296726,8.660254 0,8.660254 c -2.296726,0 -4.499694,-0.912499 -6.123724,-2.53653 C -7.747755,4.499694 -8.660254,2.296726 -8.660254,0 c 0,-2.296726 0.912499,-4.499694 2.53653,-6.123724 1.62403,-1.624031 3.826998,-2.53653 6.123724,-2.53653 z"
                           style="fill:#20b2aa;fill-opacity:1;fill-rule:nonzero;stroke:#20b2aa;stroke-width:1;stroke-linecap:butt;stroke-linejoin:round;stroke-miterlimit:10;stroke-dasharray:none;stroke-opacity:1"
                           id="path110" />
                      </g>
                    </g>
                  </g>
                </g>
              </g>
            </g>
          </g>
        </g>
      </g>
    </g>
    <g
       id="g112">
      <g
         id="g114"
         clip-path="url(#clipPath118)">
        <text
           xml:space="preserve"
           transform="matrix(1,0,0,-1,391.33271,141.24219)"
           style="font-variant:normal;font-weight:normal;font-size:10px;font-family:'DejaVu Sans';-inkscape-font-specification:DejaVuSans;writing-mode:lr-tb;fill:#000000;fill-opacity:1;fill-rule:nonzero;stroke:none"
           id="text122"><tspan
             x="0"
             y="0"
             id="tspan120">0</tspan></text>
      </g>
    </g>
    <g
       id="g124">
      <g
         id="g126"
         clip-path="url(#clipPath130)">
        <text
           xml:space="preserve"
           transform="matrix(1,0,0,-1,302.07651,260.25045)"
           style="font-variant:normal;font-weight:normal;font-size:10px;font-family:'DejaVu Sans';-inkscape-font-specification:DejaVuSans;writing-mode:lr-tb;fill:#000000;fill-opacity:1;fill-rule:nonzero;stroke:none"
           id="text134"><tspan
             x="0"
             y="0"
             id="tspan132">1</tspan></text>
      </g>
    </g>
    <g
       id="g136">
      <g
         id="g138"
         clip-path="url(#clipPath142)">
        <text
           xml:space="preserve"
           transform="matrix(1,0,0,-1,123.5641,260.25044)"
           style="font-variant:normal;font-weight:normal;font-size:10px;font-family:'DejaVu Sans';-inkscape-font-specification:DejaVuSans;writing-mode:lr-tb;fill:#000000;fill-opacity:1;fill-rule:nonzero;stroke:none"
           id="text146"><tspan
             x="0"
             y="0"
             id="tspan144">2</tspan></text>
      </g>
    </g>
    <g
       id="g148">
      <g
         id="g150"
         clip-path="url(#clipPath154)">
        <text
           xml:space="preserve"
           transform="matrix(1,0,0,-1,34.307916,141.24218)"
           style="font-variant:normal;font-weight:normal;font-size:10px;font-family:'DejaVu Sans';-inkscape-font-specification:DejaVuSans;writing-mode:lr-tb;fill:#000000;fill-opacity:1;fill-rule:nonzero;stroke:none"
           id="text158"><tspan
             x="0"
             y="0"
             id="tspan156">3</tspan></text>
      </g>
    </g>
    <g
       id="g160">
      <g
         id="g162"
         clip-path="url(#clipPath166)">
        <text
           xml:space="preserve"
           transform="matrix(1,0,0,-1,123.56413,22.233923)"
           style="font-variant:normal;font-weight:normal;font-size:10px;font-family:'DejaVu Sans';-inkscape-font-specification:DejaVuSans;writing-mode:lr-tb;fill:#000000;fill-opacity:1;fill-rule:nonzero;stroke:none"
           id="text170"><tspan
             x="0"
             y="0"
             id="tspan168">4</tspan></text>
      </g>
    </g>
    <g
       id="g172">
      <g
         id="g174"
         clip-path="url(#clipPath178)">
        <text
           xml:space="preserve"
           transform="matrix(1,0,0,-1,302.07649,22.233923)"
           style="font-variant:normal;font-weight:normal;font-size:10px;font-family:'DejaVu Sans';-inkscape-font-specification:DejaVuSans;writing-mode:lr-tb;fill:#000000;fill-opacity:1;fill-rule:nonzero;stroke:none"
           id="text182"><tspan
             x="0"
             y="0"
             id="tspan180">5</tspan></text>
      </g>
    </g>
  </g>
</svg>
