<?xml version="1.0" encoding="UTF-8" standalone="no"?>
<!-- Created with Inkscape (http://www.inkscape.org/) -->

<svg
   version="1.1"
   id="svg2"
   width="515.34167"
   height="370.71582"
   viewBox="0 0 515.34167 370.71582"
   xmlns="http://www.w3.org/2000/svg"
   xmlns:svg="http://www.w3.org/2000/svg">
  <defs
     id="defs6">
    <clipPath
       clipPathUnits="userSpaceOnUse"
       id="clipPath18">
      <path
         d="m 37.30625,31.071875 h 334.8 V 248.51187 h -334.8 z"
         id="path16" />
    </clipPath>
    <clipPath
       clipPathUnits="userSpaceOnUse"
       id="clipPath36">
      <path
         d="m 37.30625,31.071875 h 334.8 V 248.51187 h -334.8 z"
         id="path34" />
    </clipPath>
    <clipPath
       clipPathUnits="userSpaceOnUse"
       id="clipPath54">
      <path
         d="m 37.30625,31.071875 h 334.8 V 248.51187 h -334.8 z"
         id="path52" />
    </clipPath>
    <clipPath
       clipPathUnits="userSpaceOnUse"
       id="clipPath72">
      <path
         d="m 37.30625,31.071875 h 334.8 V 248.51187 h -334.8 z"
         id="path70" />
    </clipPath>
    <clipPath
       clipPathUnits="userSpaceOnUse"
       id="clipPath90">
      <path
         d="m 37.30625,31.071875 h 334.8 V 248.51187 h -334.8 z"
         id="path88" />
    </clipPath>
    <clipPath
       clipPathUnits="userSpaceOnUse"
       id="clipPath108">
      <path
         d="m 37.30625,31.071875 h 334.8 V 248.51187 h -334.8 z"
         id="path106" />
    </clipPath>
    <clipPath
       clipPathUnits="userSpaceOnUse"
       id="clipPath126">
      <path
         d="m 37.30625,31.071875 h 334.8 V 248.51187 h -334.8 z"
         id="path124" />
    </clipPath>
    <clipPath
       clipPathUnits="userSpaceOnUse"
       id="clipPath144">
      <path
         d="m 37.30625,31.071875 h 334.8 V 248.51187 h -334.8 z"
         id="path142" />
    </clipPath>
    <clipPath
       clipPathUnits="userSpaceOnUse"
       id="clipPath162">
      <path
         d="m 37.30625,31.071875 h 334.8 V 248.51187 h -334.8 z"
         id="path160" />
    </clipPath>
    <clipPath
       clipPathUnits="userSpaceOnUse"
       id="clipPath180">
      <path
         d="m 37.30625,31.071875 h 334.8 V 248.51187 h -334.8 z"
         id="path178" />
    </clipPath>
    <clipPath
       clipPathUnits="userSpaceOnUse"
       id="clipPath198">
      <path
         d="m 37.30625,31.071875 h 334.8 V 248.51187 h -334.8 z"
         id="path196" />
    </clipPath>
    <clipPath
       clipPathUnits="userSpaceOnUse"
       id="clipPath216">
      <path
         d="m 37.30625,31.071875 h 334.8 V 248.51187 h -334.8 z"
         id="path214" />
    </clipPath>
    <clipPath
       clipPathUnits="userSpaceOnUse"
       id="clipPath234">
      <path
         d="m 37.30625,31.071875 h 334.8 V 248.51187 h -334.8 z"
         id="path232" />
    </clipPath>
    <clipPath
       clipPathUnits="userSpaceOnUse"
       id="clipPath246">
      <path
         d="M -8,-8 H 8 V 8 H -8 Z"
         id="path244" />
    </clipPath>
    <clipPath
       clipPathUnits="userSpaceOnUse"
       id="clipPath258">
      <path
         d="M -8,-8 H 8 V 8 H -8 Z"
         id="path256" />
    </clipPath>
    <clipPath
       clipPathUnits="userSpaceOnUse"
       id="clipPath270">
      <path
         d="M -8,-8 H 8 V 8 H -8 Z"
         id="path268" />
    </clipPath>
    <clipPath
       clipPathUnits="userSpaceOnUse"
       id="clipPath282">
      <path
         d="M -8,-8 H 8 V 8 H -8 Z"
         id="path280" />
    </clipPath>
    <clipPath
       clipPathUnits="userSpaceOnUse"
       id="clipPath294">
      <path
         d="M -8,-8 H 8 V 8 H -8 Z"
         id="path292" />
    </clipPath>
    <clipPath
       clipPathUnits="userSpaceOnUse"
       id="clipPath306">
      <path
         d="M -8,-8 H 8 V 8 H -8 Z"
         id="path304" />
    </clipPath>
    <clipPath
       clipPathUnits="userSpaceOnUse"
       id="clipPath316">
      <path
         d="m 37.30625,31.071875 h 334.8 V 248.51187 h -334.8 z"
         id="path314" />
    </clipPath>
    <clipPath
       clipPathUnits="userSpaceOnUse"
       id="clipPath328">
      <path
         d="M -8,-8 H 8 V 8 H -8 Z"
         id="path326" />
    </clipPath>
    <clipPath
       clipPathUnits="userSpaceOnUse"
       id="clipPath340">
      <path
         d="M -8,-8 H 8 V 8 H -8 Z"
         id="path338" />
    </clipPath>
    <clipPath
       clipPathUnits="userSpaceOnUse"
       id="clipPath352">
      <path
         d="M -8,-8 H 8 V 8 H -8 Z"
         id="path350" />
    </clipPath>
    <clipPath
       clipPathUnits="userSpaceOnUse"
       id="clipPath364">
      <path
         d="M -8,-8 H 8 V 8 H -8 Z"
         id="path362" />
    </clipPath>
    <clipPath
       clipPathUnits="userSpaceOnUse"
       id="clipPath376">
      <path
         d="M -8,-8 H 8 V 8 H -8 Z"
         id="path374" />
    </clipPath>
    <clipPath
       clipPathUnits="userSpaceOnUse"
       id="clipPath388">
      <path
         d="M -8,-8 H 8 V 8 H -8 Z"
         id="path386" />
    </clipPath>
  </defs>
  <g
     id="g8"
     transform="matrix(1.3333333,0,0,-1.3333333,0,370.71583)">
    <path
       d="m 37.30625,31.071875 h 334.8 V 248.51187 h -334.8 z"
       style="fill:#ffffff;fill-opacity:1;fill-rule:nonzero;stroke:none"
       id="path10" />
    <g
       id="g12">
      <g
         id="g14"
         clip-path="url(#clipPath18)">
        <path
           d="M 52.524432,31.071875 V 248.51187"
           style="fill:none;stroke:#b0b0b0;stroke-width:0.8;stroke-linecap:square;stroke-linejoin:round;stroke-miterlimit:10;stroke-dasharray:none;stroke-opacity:1"
           id="path20" />
      </g>
    </g>
    <g
       id="g22">
      <path
         d="m 52.524432,31.071875 v -3.5"
         style="fill:#000000;fill-opacity:1;fill-rule:nonzero;stroke:#000000;stroke-width:0.8;stroke-linecap:butt;stroke-linejoin:round;stroke-miterlimit:10;stroke-dasharray:none;stroke-opacity:1"
         id="path24" />
      <text
         xml:space="preserve"
         transform="matrix(1,0,0,-1,49.344744,16.478125)"
         style="font-variant:normal;font-weight:normal;font-size:10px;font-family:'DejaVu Sans';-inkscape-font-specification:DejaVuSans;writing-mode:lr-tb;fill:#000000;fill-opacity:1;fill-rule:nonzero;stroke:none"
         id="text28"><tspan
           x="0"
           y="0"
           id="tspan26">0</tspan></text>
    </g>
    <g
       id="g30">
      <g
         id="g32"
         clip-path="url(#clipPath36)">
        <path
           d="M 113.39716,31.071875 V 248.51187"
           style="fill:none;stroke:#b0b0b0;stroke-width:0.8;stroke-linecap:square;stroke-linejoin:round;stroke-miterlimit:10;stroke-dasharray:none;stroke-opacity:1"
           id="path38" />
      </g>
    </g>
    <g
       id="g40">
      <path
         d="m 113.39716,31.071875 v -3.5"
         style="fill:#000000;fill-opacity:1;fill-rule:nonzero;stroke:#000000;stroke-width:0.8;stroke-linecap:butt;stroke-linejoin:round;stroke-miterlimit:10;stroke-dasharray:none;stroke-opacity:1"
         id="path42" />
      <text
         xml:space="preserve"
         transform="matrix(1,0,0,-1,110.21747,16.478125)"
         style="font-variant:normal;font-weight:normal;font-size:10px;font-family:'DejaVu Sans';-inkscape-font-specification:DejaVuSans;writing-mode:lr-tb;fill:#000000;fill-opacity:1;fill-rule:nonzero;stroke:none"
         id="text46"><tspan
           x="0"
           y="0"
           id="tspan44">1</tspan></text>
    </g>
    <g
       id="g48">
      <g
         id="g50"
         clip-path="url(#clipPath54)">
        <path
           d="M 174.26989,31.071875 V 248.51187"
           style="fill:none;stroke:#b0b0b0;stroke-width:0.8;stroke-linecap:square;stroke-linejoin:round;stroke-miterlimit:10;stroke-dasharray:none;stroke-opacity:1"
           id="path56" />
      </g>
    </g>
    <g
       id="g58">
      <path
         d="m 174.26989,31.071875 v -3.5"
         style="fill:#000000;fill-opacity:1;fill-rule:nonzero;stroke:#000000;stroke-width:0.8;stroke-linecap:butt;stroke-linejoin:round;stroke-miterlimit:10;stroke-dasharray:none;stroke-opacity:1"
         id="path60" />
      <text
         xml:space="preserve"
         transform="matrix(1,0,0,-1,171.0902,16.478125)"
         style="font-variant:normal;font-weight:normal;font-size:10px;font-family:'DejaVu Sans';-inkscape-font-specification:DejaVuSans;writing-mode:lr-tb;fill:#000000;fill-opacity:1;fill-rule:nonzero;stroke:none"
         id="text64"><tspan
           x="0"
           y="0"
           id="tspan62">2</tspan></text>
    </g>
    <g
       id="g66">
      <g
         id="g68"
         clip-path="url(#clipPath72)">
        <path
           d="M 235.14261,31.071875 V 248.51187"
           style="fill:none;stroke:#b0b0b0;stroke-width:0.8;stroke-linecap:square;stroke-linejoin:round;stroke-miterlimit:10;stroke-dasharray:none;stroke-opacity:1"
           id="path74" />
      </g>
    </g>
    <g
       id="g76">
      <path
         d="m 235.14261,31.071875 v -3.5"
         style="fill:#000000;fill-opacity:1;fill-rule:nonzero;stroke:#000000;stroke-width:0.8;stroke-linecap:butt;stroke-linejoin:round;stroke-miterlimit:10;stroke-dasharray:none;stroke-opacity:1"
         id="path78" />
      <text
         xml:space="preserve"
         transform="matrix(1,0,0,-1,231.96293,16.478125)"
         style="font-variant:normal;font-weight:normal;font-size:10px;font-family:'DejaVu Sans';-inkscape-font-specification:DejaVuSans;writing-mode:lr-tb;fill:#000000;fill-opacity:1;fill-rule:nonzero;stroke:none"
         id="text82"><tspan
           x="0"
           y="0"
           id="tspan80">3</tspan></text>
    </g>
    <g
       id="g84">
      <g
         id="g86"
         clip-path="url(#clipPath90)">
        <path
           d="M 296.01534,31.071875 V 248.51187"
           style="fill:none;stroke:#b0b0b0;stroke-width:0.8;stroke-linecap:square;stroke-linejoin:round;stroke-miterlimit:10;stroke-dasharray:none;stroke-opacity:1"
           id="path92" />
      </g>
    </g>
    <g
       id="g94">
      <path
         d="m 296.01534,31.071875 v -3.5"
         style="fill:#000000;fill-opacity:1;fill-rule:nonzero;stroke:#000000;stroke-width:0.8;stroke-linecap:butt;stroke-linejoin:round;stroke-miterlimit:10;stroke-dasharray:none;stroke-opacity:1"
         id="path96" />
      <text
         xml:space="preserve"
         transform="matrix(1,0,0,-1,292.83565,16.478125)"
         style="font-variant:normal;font-weight:normal;font-size:10px;font-family:'DejaVu Sans';-inkscape-font-specification:DejaVuSans;writing-mode:lr-tb;fill:#000000;fill-opacity:1;fill-rule:nonzero;stroke:none"
         id="text100"><tspan
           x="0"
           y="0"
           id="tspan98">4</tspan></text>
    </g>
    <g
       id="g102">
      <g
         id="g104"
         clip-path="url(#clipPath108)">
        <path
           d="M 356.88807,31.071875 V 248.51187"
           style="fill:none;stroke:#b0b0b0;stroke-width:0.8;stroke-linecap:square;stroke-linejoin:round;stroke-miterlimit:10;stroke-dasharray:none;stroke-opacity:1"
           id="path110" />
      </g>
    </g>
    <g
       id="g112">
      <path
         d="m 356.88807,31.071875 v -3.5"
         style="fill:#000000;fill-opacity:1;fill-rule:nonzero;stroke:#000000;stroke-width:0.8;stroke-linecap:butt;stroke-linejoin:round;stroke-miterlimit:10;stroke-dasharray:none;stroke-opacity:1"
         id="path114" />
      <text
         xml:space="preserve"
         transform="matrix(1,0,0,-1,353.70838,16.478125)"
         style="font-variant:normal;font-weight:normal;font-size:10px;font-family:'DejaVu Sans';-inkscape-font-specification:DejaVuSans;writing-mode:lr-tb;fill:#000000;fill-opacity:1;fill-rule:nonzero;stroke:none"
         id="text118"><tspan
           x="0"
           y="0"
           id="tspan116">5</tspan></text>
    </g>
    <g
       id="g120">
      <g
         id="g122"
         clip-path="url(#clipPath126)">
        <path
           d="m 37.30625,31.071875 h 334.8"
           style="fill:none;stroke:#b0b0b0;stroke-width:0.8;stroke-linecap:square;stroke-linejoin:round;stroke-miterlimit:10;stroke-dasharray:none;stroke-opacity:1"
           id="path128" />
      </g>
    </g>
    <g
       id="g130">
      <path
         d="m 37.30625,31.071875 h -3.5"
         style="fill:#000000;fill-opacity:1;fill-rule:nonzero;stroke:#000000;stroke-width:0.8;stroke-linecap:butt;stroke-linejoin:round;stroke-miterlimit:10;stroke-dasharray:none;stroke-opacity:1"
         id="path132" />
      <text
         xml:space="preserve"
         transform="matrix(1,0,0,-1,14.4,27.275)"
         style="font-variant:normal;font-weight:normal;font-size:10px;font-family:'DejaVu Sans';-inkscape-font-specification:DejaVuSans;writing-mode:lr-tb;fill:#000000;fill-opacity:1;fill-rule:nonzero;stroke:none"
         id="text136"><tspan
           x="0 6.3600001 9.54"
           y="0"
           id="tspan134">0.0</tspan></text>
    </g>
    <g
       id="g138">
      <g
         id="g140"
         clip-path="url(#clipPath144)">
        <path
           d="m 37.30625,70.60642 h 334.8"
           style="fill:none;stroke:#b0b0b0;stroke-width:0.8;stroke-linecap:square;stroke-linejoin:round;stroke-miterlimit:10;stroke-dasharray:none;stroke-opacity:1"
           id="path146" />
      </g>
    </g>
    <g
       id="g148">
      <path
         d="m 37.30625,70.60642 h -3.5"
         style="fill:#000000;fill-opacity:1;fill-rule:nonzero;stroke:#000000;stroke-width:0.8;stroke-linecap:butt;stroke-linejoin:round;stroke-miterlimit:10;stroke-dasharray:none;stroke-opacity:1"
         id="path150" />
      <text
         xml:space="preserve"
         transform="matrix(1,0,0,-1,14.4,66.809545)"
         style="font-variant:normal;font-weight:normal;font-size:10px;font-family:'DejaVu Sans';-inkscape-font-specification:DejaVuSans;writing-mode:lr-tb;fill:#000000;fill-opacity:1;fill-rule:nonzero;stroke:none"
         id="text154"><tspan
           x="0 6.3600001 9.54"
           y="0"
           id="tspan152">0.2</tspan></text>
    </g>
    <g
       id="g156">
      <g
         id="g158"
         clip-path="url(#clipPath162)">
        <path
           d="m 37.30625,110.14097 h 334.8"
           style="fill:none;stroke:#b0b0b0;stroke-width:0.8;stroke-linecap:square;stroke-linejoin:round;stroke-miterlimit:10;stroke-dasharray:none;stroke-opacity:1"
           id="path164" />
      </g>
    </g>
    <g
       id="g166">
      <path
         d="m 37.30625,110.14097 h -3.5"
         style="fill:#000000;fill-opacity:1;fill-rule:nonzero;stroke:#000000;stroke-width:0.8;stroke-linecap:butt;stroke-linejoin:round;stroke-miterlimit:10;stroke-dasharray:none;stroke-opacity:1"
         id="path168" />
      <text
         xml:space="preserve"
         transform="matrix(1,0,0,-1,14.4,106.34409)"
         style="font-variant:normal;font-weight:normal;font-size:10px;font-family:'DejaVu Sans';-inkscape-font-specification:DejaVuSans;writing-mode:lr-tb;fill:#000000;fill-opacity:1;fill-rule:nonzero;stroke:none"
         id="text172"><tspan
           x="0 6.3600001 9.54"
           y="0"
           id="tspan170">0.4</tspan></text>
    </g>
    <g
       id="g174">
      <g
         id="g176"
         clip-path="url(#clipPath180)">
        <path
           d="m 37.30625,149.67551 h 334.8"
           style="fill:none;stroke:#b0b0b0;stroke-width:0.8;stroke-linecap:square;stroke-linejoin:round;stroke-miterlimit:10;stroke-dasharray:none;stroke-opacity:1"
           id="path182" />
      </g>
    </g>
    <g
       id="g184">
      <path
         d="m 37.30625,149.67551 h -3.5"
         style="fill:#000000;fill-opacity:1;fill-rule:nonzero;stroke:#000000;stroke-width:0.8;stroke-linecap:butt;stroke-linejoin:round;stroke-miterlimit:10;stroke-dasharray:none;stroke-opacity:1"
         id="path186" />
      <text
         xml:space="preserve"
         transform="matrix(1,0,0,-1,14.4,145.87864)"
         style="font-variant:normal;font-weight:normal;font-size:10px;font-family:'DejaVu Sans';-inkscape-font-specification:DejaVuSans;writing-mode:lr-tb;fill:#000000;fill-opacity:1;fill-rule:nonzero;stroke:none"
         id="text190"><tspan
           x="0 6.3600001 9.54"
           y="0"
           id="tspan188">0.6</tspan></text>
    </g>
    <g
       id="g192">
      <g
         id="g194"
         clip-path="url(#clipPath198)">
        <path
           d="m 37.30625,189.21006 h 334.8"
           style="fill:none;stroke:#b0b0b0;stroke-width:0.8;stroke-linecap:square;stroke-linejoin:round;stroke-miterlimit:10;stroke-dasharray:none;stroke-opacity:1"
           id="path200" />
      </g>
    </g>
    <g
       id="g202">
      <path
         d="m 37.30625,189.21006 h -3.5"
         style="fill:#000000;fill-opacity:1;fill-rule:nonzero;stroke:#000000;stroke-width:0.8;stroke-linecap:butt;stroke-linejoin:round;stroke-miterlimit:10;stroke-dasharray:none;stroke-opacity:1"
         id="path204" />
      <text
         xml:space="preserve"
         transform="matrix(1,0,0,-1,14.4,185.41318)"
         style="font-variant:normal;font-weight:normal;font-size:10px;font-family:'DejaVu Sans';-inkscape-font-specification:DejaVuSans;writing-mode:lr-tb;fill:#000000;fill-opacity:1;fill-rule:nonzero;stroke:none"
         id="text208"><tspan
           x="0 6.3600001 9.54"
           y="0"
           id="tspan206">0.8</tspan></text>
    </g>
    <g
       id="g210">
      <g
         id="g212"
         clip-path="url(#clipPath216)">
        <path
           d="m 37.30625,228.7446 h 334.8"
           style="fill:none;stroke:#b0b0b0;stroke-width:0.8;stroke-linecap:square;stroke-linejoin:round;stroke-miterlimit:10;stroke-dasharray:none;stroke-opacity:1"
           id="path218" />
      </g>
    </g>
    <g
       id="g220">
      <path
         d="m 37.30625,228.7446 h -3.5"
         style="fill:#000000;fill-opacity:1;fill-rule:nonzero;stroke:#000000;stroke-width:0.8;stroke-linecap:butt;stroke-linejoin:round;stroke-miterlimit:10;stroke-dasharray:none;stroke-opacity:1"
         id="path222" />
      <text
         xml:space="preserve"
         transform="matrix(1,0,0,-1,14.4,224.94773)"
         style="font-variant:normal;font-weight:normal;font-size:10px;font-family:'DejaVu Sans';-inkscape-font-specification:DejaVuSans;writing-mode:lr-tb;fill:#000000;fill-opacity:1;fill-rule:nonzero;stroke:none"
         id="text226"><tspan
           x="0 6.3600001 9.54"
           y="0"
           id="tspan224">1.0</tspan></text>
    </g>
    <g
       id="g228">
      <g
         id="g230"
         clip-path="url(#clipPath234)">
        <path
           d="m 52.524432,222.81442 60.872728,-21.744 60.87273,-134.417454 60.87272,11.860364 60.87273,-1.976728 60.87273,-23.720727"
           style="fill:none;stroke:#ffa500;stroke-width:1.5;stroke-linecap:square;stroke-linejoin:round;stroke-miterlimit:10;stroke-dasharray:none;stroke-opacity:1"
           id="path236" />
        <g
           id="g238"
           transform="translate(52.524432,222.81442)">
          <g
             id="g240">
            <g
               id="g242"
               clip-path="url(#clipPath246)">
              <path
                 d="m 0,-3 c 0.795609,0 1.55874,0.316099 2.12132,0.87868 C 2.683901,-1.55874 3,-0.795609 3,0 3,0.795609 2.683901,1.55874 2.12132,2.12132 1.55874,2.683901 0.795609,3 0,3 -0.795609,3 -1.55874,2.683901 -2.12132,2.12132 -2.683901,1.55874 -3,0.795609 -3,0 -3,-0.795609 -2.683901,-1.55874 -2.12132,-2.12132 -1.55874,-2.683901 -0.795609,-3 0,-3 Z"
                 style="fill:#ffa500;fill-opacity:1;fill-rule:nonzero;stroke:#ffa500;stroke-width:1;stroke-linecap:butt;stroke-linejoin:round;stroke-miterlimit:10;stroke-dasharray:none;stroke-opacity:1"
                 id="path248" />
            </g>
          </g>
          <g
             id="g250"
             transform="translate(60.872727,-21.744)">
            <g
               id="g252">
              <g
                 id="g254"
                 clip-path="url(#clipPath258)">
                <path
                   d="m 0,-3 c 0.795609,0 1.55874,0.316099 2.12132,0.87868 C 2.683901,-1.55874 3,-0.795609 3,0 3,0.795609 2.683901,1.55874 2.12132,2.12132 1.55874,2.683901 0.795609,3 0,3 -0.795609,3 -1.55874,2.683901 -2.12132,2.12132 -2.683901,1.55874 -3,0.795609 -3,0 -3,-0.795609 -2.683901,-1.55874 -2.12132,-2.12132 -1.55874,-2.683901 -0.795609,-3 0,-3 Z"
                   style="fill:#ffa500;fill-opacity:1;fill-rule:nonzero;stroke:#ffa500;stroke-width:1;stroke-linecap:butt;stroke-linejoin:round;stroke-miterlimit:10;stroke-dasharray:none;stroke-opacity:1"
                   id="path260" />
              </g>
            </g>
            <g
               id="g262"
               transform="translate(60.872727,-134.41745)">
              <g
                 id="g264">
                <g
                   id="g266"
                   clip-path="url(#clipPath270)">
                  <path
                     d="m 0,-3 c 0.795609,0 1.55874,0.316099 2.12132,0.87868 C 2.683901,-1.55874 3,-0.795609 3,0 3,0.795609 2.683901,1.55874 2.12132,2.12132 1.55874,2.683901 0.795609,3 0,3 -0.795609,3 -1.55874,2.683901 -2.12132,2.12132 -2.683901,1.55874 -3,0.795609 -3,0 -3,-0.795609 -2.683901,-1.55874 -2.12132,-2.12132 -1.55874,-2.683901 -0.795609,-3 0,-3 Z"
                     style="fill:#ffa500;fill-opacity:1;fill-rule:nonzero;stroke:#ffa500;stroke-width:1;stroke-linecap:butt;stroke-linejoin:round;stroke-miterlimit:10;stroke-dasharray:none;stroke-opacity:1"
                     id="path272" />
                </g>
              </g>
              <g
                 id="g274"
                 transform="translate(60.872727,11.860364)">
                <g
                   id="g276">
                  <g
                     id="g278"
                     clip-path="url(#clipPath282)">
                    <path
                       d="m 0,-3 c 0.795609,0 1.55874,0.316099 2.12132,0.87868 C 2.683901,-1.55874 3,-0.795609 3,0 3,0.795609 2.683901,1.55874 2.12132,2.12132 1.55874,2.683901 0.795609,3 0,3 -0.795609,3 -1.55874,2.683901 -2.12132,2.12132 -2.683901,1.55874 -3,0.795609 -3,0 -3,-0.795609 -2.683901,-1.55874 -2.12132,-2.12132 -1.55874,-2.683901 -0.795609,-3 0,-3 Z"
                       style="fill:#ffa500;fill-opacity:1;fill-rule:nonzero;stroke:#ffa500;stroke-width:1;stroke-linecap:butt;stroke-linejoin:round;stroke-miterlimit:10;stroke-dasharray:none;stroke-opacity:1"
                       id="path284" />
                  </g>
                </g>
                <g
                   id="g286"
                   transform="translate(60.872727,-1.9767273)">
                  <g
                     id="g288">
                    <g
                       id="g290"
                       clip-path="url(#clipPath294)">
                      <path
                         d="m 0,-3 c 0.795609,0 1.55874,0.316099 2.12132,0.87868 C 2.683901,-1.55874 3,-0.795609 3,0 3,0.795609 2.683901,1.55874 2.12132,2.12132 1.55874,2.683901 0.795609,3 0,3 -0.795609,3 -1.55874,2.683901 -2.12132,2.12132 -2.683901,1.55874 -3,0.795609 -3,0 -3,-0.795609 -2.683901,-1.55874 -2.12132,-2.12132 -1.55874,-2.683901 -0.795609,-3 0,-3 Z"
                         style="fill:#ffa500;fill-opacity:1;fill-rule:nonzero;stroke:#ffa500;stroke-width:1;stroke-linecap:butt;stroke-linejoin:round;stroke-miterlimit:10;stroke-dasharray:none;stroke-opacity:1"
                         id="path296" />
                    </g>
                  </g>
                  <g
                     id="g298"
                     transform="translate(60.872727,-23.720727)">
                    <g
                       id="g300">
                      <g
                         id="g302"
                         clip-path="url(#clipPath306)">
                        <path
                           d="m 0,-3 c 0.795609,0 1.55874,0.316099 2.12132,0.87868 C 2.683901,-1.55874 3,-0.795609 3,0 3,0.795609 2.683901,1.55874 2.12132,2.12132 1.55874,2.683901 0.795609,3 0,3 -0.795609,3 -1.55874,2.683901 -2.12132,2.12132 -2.683901,1.55874 -3,0.795609 -3,0 -3,-0.795609 -2.683901,-1.55874 -2.12132,-2.12132 -1.55874,-2.683901 -0.795609,-3 0,-3 Z"
                           style="fill:#ffa500;fill-opacity:1;fill-rule:nonzero;stroke:#ffa500;stroke-width:1;stroke-linecap:butt;stroke-linejoin:round;stroke-miterlimit:10;stroke-dasharray:none;stroke-opacity:1"
                           id="path308" />
                      </g>
                    </g>
                  </g>
                </g>
              </g>
            </g>
          </g>
        </g>
      </g>
    </g>
    <g
       id="g310">
      <g
         id="g312"
         clip-path="url(#clipPath316)">
        <path
           d="m 52.524432,222.81442 60.872728,5.93018 60.87273,-5.93018 60.87272,-7.90691 60.87273,11.86036 h 60.87273"
           style="fill:none;stroke:#4169e1;stroke-width:1.5;stroke-linecap:square;stroke-linejoin:round;stroke-miterlimit:10;stroke-dasharray:none;stroke-opacity:1"
           id="path318" />
        <g
           id="g320"
           transform="translate(52.524432,222.81442)">
          <g
             id="g322">
            <g
               id="g324"
               clip-path="url(#clipPath328)">
              <path
                 d="m 0,-3 c 0.795609,0 1.55874,0.316099 2.12132,0.87868 C 2.683901,-1.55874 3,-0.795609 3,0 3,0.795609 2.683901,1.55874 2.12132,2.12132 1.55874,2.683901 0.795609,3 0,3 -0.795609,3 -1.55874,2.683901 -2.12132,2.12132 -2.683901,1.55874 -3,0.795609 -3,0 -3,-0.795609 -2.683901,-1.55874 -2.12132,-2.12132 -1.55874,-2.683901 -0.795609,-3 0,-3 Z"
                 style="fill:#4169e1;fill-opacity:1;fill-rule:nonzero;stroke:#4169e1;stroke-width:1;stroke-linecap:butt;stroke-linejoin:round;stroke-miterlimit:10;stroke-dasharray:none;stroke-opacity:1"
                 id="path330" />
            </g>
          </g>
          <g
             id="g332"
             transform="translate(60.872727,5.9301818)">
            <g
               id="g334">
              <g
                 id="g336"
                 clip-path="url(#clipPath340)">
                <path
                   d="m 0,-3 c 0.795609,0 1.55874,0.316099 2.12132,0.87868 C 2.683901,-1.55874 3,-0.795609 3,0 3,0.795609 2.683901,1.55874 2.12132,2.12132 1.55874,2.683901 0.795609,3 0,3 -0.795609,3 -1.55874,2.683901 -2.12132,2.12132 -2.683901,1.55874 -3,0.795609 -3,0 -3,-0.795609 -2.683901,-1.55874 -2.12132,-2.12132 -1.55874,-2.683901 -0.795609,-3 0,-3 Z"
                   style="fill:#4169e1;fill-opacity:1;fill-rule:nonzero;stroke:#4169e1;stroke-width:1;stroke-linecap:butt;stroke-linejoin:round;stroke-miterlimit:10;stroke-dasharray:none;stroke-opacity:1"
                   id="path342" />
              </g>
            </g>
            <g
               id="g344"
               transform="translate(60.872727,-5.9301818)">
              <g
                 id="g346">
                <g
                   id="g348"
                   clip-path="url(#clipPath352)">
                  <path
                     d="m 0,-3 c 0.795609,0 1.55874,0.316099 2.12132,0.87868 C 2.683901,-1.55874 3,-0.795609 3,0 3,0.795609 2.683901,1.55874 2.12132,2.12132 1.55874,2.683901 0.795609,3 0,3 -0.795609,3 -1.55874,2.683901 -2.12132,2.12132 -2.683901,1.55874 -3,0.795609 -3,0 -3,-0.795609 -2.683901,-1.55874 -2.12132,-2.12132 -1.55874,-2.683901 -0.795609,-3 0,-3 Z"
                     style="fill:#4169e1;fill-opacity:1;fill-rule:nonzero;stroke:#4169e1;stroke-width:1;stroke-linecap:butt;stroke-linejoin:round;stroke-miterlimit:10;stroke-dasharray:none;stroke-opacity:1"
                     id="path354" />
                </g>
              </g>
              <g
                 id="g356"
                 transform="translate(60.872727,-7.9069091)">
                <g
                   id="g358">
                  <g
                     id="g360"
                     clip-path="url(#clipPath364)">
                    <path
                       d="m 0,-3 c 0.795609,0 1.55874,0.316099 2.12132,0.87868 C 2.683901,-1.55874 3,-0.795609 3,0 3,0.795609 2.683901,1.55874 2.12132,2.12132 1.55874,2.683901 0.795609,3 0,3 -0.795609,3 -1.55874,2.683901 -2.12132,2.12132 -2.683901,1.55874 -3,0.795609 -3,0 -3,-0.795609 -2.683901,-1.55874 -2.12132,-2.12132 -1.55874,-2.683901 -0.795609,-3 0,-3 Z"
                       style="fill:#4169e1;fill-opacity:1;fill-rule:nonzero;stroke:#4169e1;stroke-width:1;stroke-linecap:butt;stroke-linejoin:round;stroke-miterlimit:10;stroke-dasharray:none;stroke-opacity:1"
                       id="path366" />
                  </g>
                </g>
                <g
                   id="g368"
                   transform="translate(60.872727,11.860364)">
                  <g
                     id="g370">
                    <g
                       id="g372"
                       clip-path="url(#clipPath376)">
                      <path
                         d="m 0,-3 c 0.795609,0 1.55874,0.316099 2.12132,0.87868 C 2.683901,-1.55874 3,-0.795609 3,0 3,0.795609 2.683901,1.55874 2.12132,2.12132 1.55874,2.683901 0.795609,3 0,3 -0.795609,3 -1.55874,2.683901 -2.12132,2.12132 -2.683901,1.55874 -3,0.795609 -3,0 -3,-0.795609 -2.683901,-1.55874 -2.12132,-2.12132 -1.55874,-2.683901 -0.795609,-3 0,-3 Z"
                         style="fill:#4169e1;fill-opacity:1;fill-rule:nonzero;stroke:#4169e1;stroke-width:1;stroke-linecap:butt;stroke-linejoin:round;stroke-miterlimit:10;stroke-dasharray:none;stroke-opacity:1"
                         id="path378" />
                    </g>
                  </g>
                  <g
                     id="g380"
                     transform="translate(60.872727)">
                    <g
                       id="g382">
                      <g
                         id="g384"
                         clip-path="url(#clipPath388)">
                        <path
                           d="m 0,-3 c 0.795609,0 1.55874,0.316099 2.12132,0.87868 C 2.683901,-1.55874 3,-0.795609 3,0 3,0.795609 2.683901,1.55874 2.12132,2.12132 1.55874,2.683901 0.795609,3 0,3 -0.795609,3 -1.55874,2.683901 -2.12132,2.12132 -2.683901,1.55874 -3,0.795609 -3,0 -3,-0.795609 -2.683901,-1.55874 -2.12132,-2.12132 -1.55874,-2.683901 -0.795609,-3 0,-3 Z"
                           style="fill:#4169e1;fill-opacity:1;fill-rule:nonzero;stroke:#4169e1;stroke-width:1;stroke-linecap:butt;stroke-linejoin:round;stroke-miterlimit:10;stroke-dasharray:none;stroke-opacity:1"
                           id="path390" />
                      </g>
                    </g>
                  </g>
                </g>
              </g>
            </g>
          </g>
        </g>
      </g>
    </g>
    <g
       id="g392">
      <path
         d="M 37.30625,31.071875 V 248.51187"
         style="fill:none;stroke:#000000;stroke-width:0.8;stroke-linecap:square;stroke-linejoin:miter;stroke-miterlimit:10;stroke-dasharray:none;stroke-opacity:1"
         id="path394" />
      <path
         d="M 372.10625,31.071875 V 248.51187"
         style="fill:none;stroke:#000000;stroke-width:0.8;stroke-linecap:square;stroke-linejoin:miter;stroke-miterlimit:10;stroke-dasharray:none;stroke-opacity:1"
         id="path396" />
      <path
         d="m 37.30625,31.071875 h 334.8"
         style="fill:none;stroke:#000000;stroke-width:0.8;stroke-linecap:square;stroke-linejoin:miter;stroke-miterlimit:10;stroke-dasharray:none;stroke-opacity:1"
         id="path398" />
      <path
         d="m 37.30625,248.51187 h 334.8"
         style="fill:none;stroke:#000000;stroke-width:0.8;stroke-linecap:square;stroke-linejoin:miter;stroke-miterlimit:10;stroke-dasharray:none;stroke-opacity:1"
         id="path400" />
      <text
         xml:space="preserve"
         transform="matrix(1,0,0,-1,188.57344,254.51187)"
         style="font-variant:normal;font-weight:normal;font-size:12px;font-family:'DejaVu Sans';-inkscape-font-specification:DejaVuSans;writing-mode:lr-tb;fill:#000000;fill-opacity:1;fill-rule:nonzero;stroke:none"
         id="text404"><tspan
           x="0 7.3319998 14.676 22.296 26.628"
           y="0"
           id="tspan402">Top-5</tspan></text>
      <path
         d="m 44.30625,36.071875 h 77.8125 c 1.33333,0 2,0.666667 2,2 v 28.34375 c 0,1.333333 -0.66667,2 -2,2 h -77.8125 c -1.333333,0 -2,-0.666667 -2,-2 v -28.34375 c 0,-1.333333 0.666667,-2 2,-2 z"
         style="fill:#ffffff;fill-opacity:0.8;fill-rule:nonzero;stroke:#cccccc;stroke-width:1;stroke-linecap:butt;stroke-linejoin:miter;stroke-miterlimit:10;stroke-dasharray:none;stroke-opacity:0.8"
         id="path406" />
      <path
         d="m 46.30625,60.321875 h 20"
         style="fill:none;stroke:#ffa500;stroke-width:1.5;stroke-linecap:square;stroke-linejoin:round;stroke-miterlimit:10;stroke-dasharray:none;stroke-opacity:1"
         id="path408" />
      <path
         d="m 56.30625,57.321875 c 0.795609,0 1.55874,0.316099 2.12132,0.87868 0.562581,0.56258 0.87868,1.325711 0.87868,2.12132 0,0.795609 -0.316099,1.55874 -0.87868,2.12132 -0.56258,0.562581 -1.325711,0.87868 -2.12132,0.87868 -0.795609,0 -1.55874,-0.316099 -2.12132,-0.87868 -0.562581,-0.56258 -0.87868,-1.325711 -0.87868,-2.12132 0,-0.795609 0.316099,-1.55874 0.87868,-2.12132 0.56258,-0.562581 1.325711,-0.87868 2.12132,-0.87868 z"
         style="fill:#ffa500;fill-opacity:1;fill-rule:nonzero;stroke:#ffa500;stroke-width:1;stroke-linecap:butt;stroke-linejoin:round;stroke-miterlimit:10;stroke-dasharray:none;stroke-opacity:1"
         id="path410" />
      <text
         xml:space="preserve"
         transform="matrix(1,0,0,-1,74.30625,56.821875)"
         style="font-variant:normal;font-weight:normal;font-size:10px;font-family:'DejaVu Sans';-inkscape-font-specification:DejaVuSans;writing-mode:lr-tb;fill:#000000;fill-opacity:1;fill-rule:nonzero;stroke:none"
         id="text414"><tspan
           x="0 6.8400002 15.47 22.030001"
           y="0"
           id="tspan412">AMKS</tspan></text>
      <path
         d="m 46.30625,45.65 h 20"
         style="fill:none;stroke:#4169e1;stroke-width:1.5;stroke-linecap:square;stroke-linejoin:round;stroke-miterlimit:10;stroke-dasharray:none;stroke-opacity:1"
         id="path416" />
      <path
         d="m 56.30625,42.65 c 0.795609,0 1.55874,0.316099 2.12132,0.87868 0.562581,0.56258 0.87868,1.325711 0.87868,2.12132 0,0.795609 -0.316099,1.55874 -0.87868,2.12132 -0.56258,0.562581 -1.325711,0.87868 -2.12132,0.87868 -0.795609,0 -1.55874,-0.316099 -2.12132,-0.87868 -0.562581,-0.56258 -0.87868,-1.325711 -0.87868,-2.12132 0,-0.795609 0.316099,-1.55874 0.87868,-2.12132 C 54.74751,42.966099 55.510641,42.65 56.30625,42.65 Z"
         style="fill:#4169e1;fill-opacity:1;fill-rule:nonzero;stroke:#4169e1;stroke-width:1;stroke-linecap:butt;stroke-linejoin:round;stroke-miterlimit:10;stroke-dasharray:none;stroke-opacity:1"
         id="path418" />
      <text
         xml:space="preserve"
         transform="matrix(1,0,0,-1,74.30625,42.15)"
         style="font-variant:normal;font-weight:normal;font-size:10px;font-family:'DejaVu Sans';-inkscape-font-specification:DejaVuSans;writing-mode:lr-tb;fill:#000000;fill-opacity:1;fill-rule:nonzero;stroke:none"
         id="text422"><tspan
           x="0 7.48 14.32 17.93 24.77 33.400002 39.959999"
           y="0"
           id="tspan420">NA-AMKS</tspan></text>
    </g>
  </g>
</svg>
